<svg data-v-4afe6921="" viewBox="0 0 692.9 161.35" class="lab-logo navbar-logo"><path data-v-4afe6921="" d="M13.09,9.8H26.67V156.53H13.09Z" transform="translate(-13.09 -8.46)" class="cls-1"></path> <path data-v-4afe6921="" d="M160,50.67V156.53H146.61v-18.2A58.09,58.09,0,0,1,127.46,154a51.67,51.67,0,0,1-23.22,5.25Q81.85,159.25,66,143T50.13,103.31a53.74,53.74,0,0,1,16-39.12q16-16.24,38.5-16.25a49.59,49.59,0,0,1,23.51,5.55,53.48,53.48,0,0,1,18.47,16.64V50.67ZM105.74,61.08A40.9,40.9,0,0,0,69.57,82.37a43,43,0,0,0,0,42.76A41.69,41.69,0,0,0,85,141a40,40,0,0,0,20.68,5.68,42.35,42.35,0,0,0,21.11-5.63,39.37,39.37,0,0,0,15.35-15.26,43.74,43.74,0,0,0,5.38-21.68q0-18.36-12.06-30.71A39.88,39.88,0,0,0,105.74,61.08Z" transform="translate(-13.09 -8.46)" class="cls-1"></path> <path data-v-4afe6921="" d="M389,46.58H374.46q4-17.7,15.23-27.24A39.74,39.74,0,0,1,416.25,9.8a43.83,43.83,0,0,1,20.8,5.11A37.8,37.8,0,0,1,452,28.68a34.27,34.27,0,0,1,5.28,18.1q0,18.48-18.33,29.28a41.62,41.62,0,0,1,16.88,12.26,39.3,39.3,0,0,1,9.31,25.5,45.64,45.64,0,0,1-6.4,23.2,44.44,44.44,0,0,1-17.46,17.08,50.78,50.78,0,0,1-24.73,6q-18.42,0-30.73-10.65t-16.1-31.29h14q3.69,13.92,10.57,20.15,8.82,7.88,22.5,7.88,15.51,0,24.92-9.34t9.41-21.9a28.36,28.36,0,0,0-4.71-15.66,29.61,29.61,0,0,0-12.6-11q-7.9-3.69-24.49-4.57V70.61a44.8,44.8,0,0,0,17.84-3.45q8.06-3.45,11.69-8.81a20.34,20.34,0,0,0,3.64-11.67q0-9.34-7.42-16.15t-18.77-6.81a25.12,25.12,0,0,0-15.9,5.2Q393.66,34.13,389,46.58Z" transform="translate(-13.09 -8.46)" class="cls-1"></path> <path data-v-4afe6921="" d="M495.77,58.16H482.09Q482.68,37,496.2,23.4T529.61,9.8q19.68,0,31.85,12.76a42.12,42.12,0,0,1,12.17,30.07,47,47,0,0,1-5.8,22.83Q562,86.13,545.3,104.32l-35.53,38.39h65.8v13.82H478.7l54.5-59.1Q549.78,79.61,554.77,71a35.64,35.64,0,0,0,5-18.16,28,28,0,0,0-9-20.79,30.32,30.32,0,0,0-22-8.71q-13.67,0-22.74,9.14T495.77,58.16Z" transform="translate(-13.09 -8.46)" class="cls-1"></path> <path data-v-4afe6921="" d="M619.59,13.4h28V156.53H633.46V27.41h-22.4Z" transform="translate(-13.09 -8.46)" class="cls-1"></path> <path data-v-4afe6921="" d="M218.12,8.46V86.27a56.56,56.56,0,1,1,0,34.18v35.88a.2.2,0,0,1-.2.2h-13.8V8.46H187.28V169.81H348.63V8.46Z" transform="translate(-13.09 -8.46)" class="cls-1"></path> <path data-v-4afe6921="" d="M272,60.8a42.56,42.56,0,1,0,42.55,42.56A42.61,42.61,0,0,0,272,60.8Z" transform="translate(-13.09 -8.46)" class="cls-1"></path></svg>